{"title":"Fifty.Shades.Of.Grey.2015.CAM.XviD-FANTA","uid":11706041,"size":1364359846,"categoryP":"video","categoryS":"movies","magnet":"?xt=urn:btih:e8af6fa78bbdb88d03fcf2f46e3e584930c9263f&amp;dn=Fifty.Shades.Of.Grey.2015.CAM.XviD-FANTA&amp;tr=udp%3A%2F%2Ftracker.openbittorrent.com%3A80&amp;tr=udp%3A%2F%2Fopen.demonii.com%3A1337&amp;tr=udp%3A%2F%2Ftracker.coppersurfer.tk%3A6969&amp;tr=udp%3A%2F%2Fexodus.desync.com%3A6969","seeders":505,"leechers":4,"uploader":"xxxlavalxxx","files":2,"time":1424127125,"description":"[img]http://i.imgur.com/dCRZQ6P.jpg[/img]\n &lt;a href=&quot;\nhttp://www.imdb.com/title/tt2322441/&quot; rel=&quot;nofollow&quot; target=&quot;_NEW&quot;&gt;\nhttp://www.imdb.com/title/tt2322441/&lt;/a&gt;\n\n\nLiterature student Anastasia Steele's life changes forever when she meets handsome, yet tormented, billionaire Christian Grey.\n\nDirector: Sam Taylor-Johnson\nWriters: Kelly Marcel (screenplay), E.L. James (novel)\nStars: Dakota Johnson, Jamie Dornan, Jennifer Ehle\nGenres: Drama | Romance\nCountry: USA\nLanguage: English\n\n\nNotes: first few minutes russian audio and in the middle 2 minutes russian audio in all other time english audio\n\n\nFormat                                   : AVI\nFormat/Info                              : Audio Video Interleave\nFormat profile                           : OpenDML\nFormat settings                          : rec\nFile size                                : 1.27 GiB\nDuration                                 : 1h 47mn\nOverall bit rate                         : 1 699 Kbps\nWriting application                      : AVI-Mux GUI 1.17.8.3, Feb 16 201019:42:50\n\nVideo\nID                                       : 0\nFormat                                   : MPEG-4 Visual\nFormat profile                           : Advanced Simple@L5\nFormat settings, BVOP                    : 2\nFormat settings, QPel                    : No\nFormat settings, GMC                     : No warppoints\nFormat settings, Matrix                  : Default (H.263)\nCodec ID                                 : XVID\nCodec ID/Hint                            : XviD\nDuration                                 : 1h 47mn\nBit rate                                 : 1 501 Kbps\nWidth                                    : 720 pixels\nHeight                                   : 304 pixels\nDisplay aspect ratio                     : 2.35:1\nFrame rate                               : 29.970 fps\nColor space                              : YUV\nChroma subsampling                       : 4:2:0\nBit depth                                : 8 bits\nScan type                                : Progressive\nCompression mode                         : Lossy\nBits/(Pixel*Frame)                       : 0.229\nStream size                              : 1.12 GiB (88%)\nWriting library                          : XviD 65\n\nAudio\nID                                       : 1\nFormat                                   : AC-3\nFormat/Info                              : Audio Coding 3\nMode extension                           : CM (complete main)\nFormat settings, Endianness              : Big\nCodec ID                                 : 2000\nDuration                                 : 1h 47mn\nBit rate mode                            : Constant\nBit rate                                 : 192 Kbps\nChannel(s)                               : 2 channels\nChannel positions                        : Front: L R\nSampling rate                            : 44.1 KHz\nBit depth                                : 16 bits\nCompression mode                         : Lossy\nStream size                              : 147 MiB (11%)\nAlignment                                : Aligned on interleaves\nInterleave, duration                     : 70 ms (2.09 video frames)\nInterleave, preload duration             : 208 ms\n\n &lt;a href=&quot;\nhttp://i.imgur.com/Zri2Gbg.jpg&quot; rel=&quot;nofollow&quot; target=&quot;_NEW&quot;&gt;\nhttp://i.imgur.com/Zri2Gbg.jpg&lt;/a&gt; &lt;a href=&quot;\nhttp://i.imgur.com/10PHaO7.jpg&quot; rel=&quot;nofollow&quot; target=&quot;_NEW&quot;&gt;\nhttp://i.imgur.com/10PHaO7.jpg&lt;/a&gt; &lt;a href=&quot;\nhttp://i.imgur.com/WMYRYyB.jpg&quot; rel=&quot;nofollow&quot; target=&quot;_NEW&quot;&gt;\nhttp://i.imgur.com/WMYRYyB.jpg&lt;/a&gt; &lt;a href=&quot;\nhttp://i.imgur.com/kWh8inz.jpg&quot; rel=&quot;nofollow&quot; target=&quot;_NEW&quot;&gt;\nhttp://i.imgur.com/kWh8inz.jpg&lt;/a&gt; &lt;a href=&quot;\nhttp://i.imgur.com/hwxdBEL.jpg&quot; rel=&quot;nofollow&quot; target=&quot;_NEW&quot;&gt;\nhttp://i.imgur.com/hwxdBEL.jpg&lt;/a&gt; &lt;a href=&quot;\nhttp://i.imgur.com/97nvuXb.jpg&quot; rel=&quot;nofollow&quot; target=&quot;_NEW&quot;&gt;\nhttp://i.imgur.com/97nvuXb.jpg&lt;/a&gt; &lt;a href=&quot;\nhttp://i.imgur.com/smZqTDE.jpg&quot; rel=&quot;nofollow&quot; target=&quot;_NEW&quot;&gt;\nhttp://i.imgur.com/smZqTDE.jpg&lt;/a&gt; &lt;a href=&quot;\nhttp://i.imgur.com/GlQzBqJ.jpg&quot; rel=&quot;nofollow&quot; target=&quot;_NEW&quot;&gt;\nhttp://i.imgur.com/GlQzBqJ.jpg&lt;/a&gt; &lt;a href=&quot;\nhttp://i.imgur.com/QfjTjIE.jpg&quot; rel=&quot;nofollow&quot; target=&quot;_NEW&quot;&gt;\nhttp://i.imgur.com/QfjTjIE.jpg&lt;/a&gt;","torrent":{"xt":"urn:btih:e8af6fa78bbdb88d03fcf2f46e3e584930c9263f","amp;dn":"Fifty.Shades.Of.Grey.2015.CAM.XviD-FANTA","amp;tr":["udp%3A%2F%2Ftracker.openbittorrent.com%3A80","udp%3A%2F%2Fopen.demonii.com%3A1337","udp%3A%2F%2Ftracker.coppersurfer.tk%3A6969","udp%3A%2F%2Fexodus.desync.com%3A6969"],"infoHash":"e8af6fa78bbdb88d03fcf2f46e3e584930c9263f","infoHashBuffer":{"type":"Buffer","data":[232,175,111,167,139,189,184,141,3,252,242,244,110,62,88,73,48,201,38,63]},"announce":[],"urlList":[]}}